<svg xmlns="http://www.w3.org/2000/svg" viewBox="0 0 800 500" width="800" height="500">
  <!-- Background -->
  <rect x="0" y="0" width="800" height="500" fill="#f8f9fa" rx="10" ry="10" />
  
  <!-- Document/Canvas -->
  <rect x="150" y="50" width="500" height="400" fill="#ffffff" stroke="#e0e0e0" stroke-width="2" rx="5" ry="5" />
  
  <!-- AI Brain in the center -->
  <circle cx="400" cy="250" r="60" fill="#6200ea" opacity="0.1" />
  <circle cx="400" cy="250" r="40" fill="#6200ea" opacity="0.2" />
  
  <!-- Brain icon -->
  <path d="M400,220 Q420,200 440,220 Q460,240 440,260 Q420,280 400,260 Q380,240 400,220" fill="none" stroke="#6200ea" stroke-width="3" />
  <path d="M380,230 Q360,210 380,190 Q400,170 420,190 Q440,210 420,230" fill="none" stroke="#6200ea" stroke-width="3" />
  <path d="M380,270 Q360,290 380,310 Q400,330 420,310 Q440,290 420,270" fill="none" stroke="#6200ea" stroke-width="3" />
  
  <!-- Connection lines from users to center -->
  <line x1="150" y1="125" x2="350" y2="225" stroke="#4A86E8" stroke-width="2" stroke-dasharray="5,5" />
  <line x1="150" y1="250" x2="350" y2="250" stroke="#FF8A65" stroke-width="2" stroke-dasharray="5,5" />
  <line x1="150" y1="375" x2="350" y2="275" stroke="#7CB342" stroke-width="2" stroke-dasharray="5,5" />
  
  <!-- Connection lines from center to document -->
  <line x1="450" y1="250" x2="600" y2="150" stroke="#6200ea" stroke-width="2" stroke-dasharray="5,5" />
  <line x1="450" y1="250" x2="600" y2="250" stroke="#6200ea" stroke-width="2" stroke-dasharray="5,5" />
  <line x1="450" y1="250" x2="600" y2="350" stroke="#6200ea" stroke-width="2" stroke-dasharray="5,5" />
  
  <!-- User 1 contribution -->
  <rect x="50" y="100" width="100" height="50" rx="5" ry="5" fill="#4A86E8" opacity="0.2" stroke="#4A86E8" stroke-width="1" />
  <text x="100" y="125" font-family="Arial" font-size="10" text-anchor="middle" fill="#333333">Market Analysis</text>
  <circle cx="40" cy="125" r="20" fill="#4A86E8" />
  
  <!-- User 2 contribution -->
  <rect x="50" y="225" width="100" height="50" rx="5" ry="5" fill="#FF8A65" opacity="0.2" stroke="#FF8A65" stroke-width="1" />
  <text x="100" y="250" font-family="Arial" font-size="10" text-anchor="middle" fill="#333333">Competitor Data</text>
  <circle cx="40" cy="250" r="20" fill="#FF8A65" />
  
  <!-- User 3 contribution -->
  <rect x="50" y="350" width="100" height="50" rx="5" ry="5" fill="#7CB342" opacity="0.2" stroke="#7CB342" stroke-width="1" />
  <text x="100" y="375" font-family="Arial" font-size="10" text-anchor="middle" fill="#333333">Growth Projections</text>
  <circle cx="40" cy="375" r="20" fill="#7CB342" />
  
  <!-- Output Document Sections -->
  <rect x="600" y="125" width="150" height="50" rx="5" ry="5" fill="#ffffff" stroke="#6200ea" stroke-width="1" />
  <text x="675" y="155" font-family="Arial" font-size="10" text-anchor="middle" fill="#333333">Market Analysis</text>
  
  <rect x="600" y="225" width="150" height="50" rx="5" ry="5" fill="#ffffff" stroke="#6200ea" stroke-width="1" />
  <text x="675" y="255" font-family="Arial" font-size="10" text-anchor="middle" fill="#333333">Competitor Data</text>
  
  <rect x="600" y="325" width="150" height="50" rx="5" ry="5" fill="#ffffff" stroke="#6200ea" stroke-width="1" />
  <text x="675" y="355" font-family="Arial" font-size="10" text-anchor="middle" fill="#333333">Growth Projections</text>
</svg>