<svg width="40" height="40" viewBox="0 0 40 40" fill="none" xmlns="http://www.w3.org/2000/svg">
  <!-- Brain outline -->
  <path d="M20 5C13.925 5 9 9.925 9 16C9 19.283 10.348 22.244 12.5 24.336V26C12.5 28.209 14.291 30 16.5 30H23.5C25.709 30 27.5 28.209 27.5 26V24.336C29.652 22.244 31 19.283 31 16C31 9.925 26.075 5 20 5Z" stroke="#4A6CF7" stroke-width="2" stroke-linecap="round" stroke-linejoin="round"/>
  
  <!-- Brain details -->
  <path d="M16 14C16 12.343 17.343 11 19 11C20.657 11 22 12.343 22 14" stroke="#4A6CF7" stroke-width="2" stroke-linecap="round"/>
  <path d="M14 18C14 16.343 15.343 15 17 15C18.657 15 20 16.343 20 18" stroke="#4A6CF7" stroke-width="2" stroke-linecap="round"/>
  <path d="M20 18C20 16.343 21.343 15 23 15C24.657 15 26 16.343 26 18" stroke="#4A6CF7" stroke-width="2" stroke-linecap="round"/>
  
  <!-- Connection lines -->
  <path d="M15 22C15 20.343 16.343 19 18 19C19.657 19 21 20.343 21 22" stroke="#4A6CF7" stroke-width="2" stroke-linecap="round"/>
  <path d="M19 22C19 20.343 20.343 19 22 19C23.657 19 25 20.343 25 22" stroke="#4A6CF7" stroke-width="2" stroke-linecap="round"/>
  
  <!-- Pulse circles -->
  <circle cx="20" cy="16" r="1.5" fill="#4A6CF7">
    <animate attributeName="opacity" values="1;0.3;1" dur="2s" repeatCount="indefinite"/>
  </circle>
  <circle cx="16" cy="19" r="1" fill="#4A6CF7">
    <animate attributeName="opacity" values="0.3;1;0.3" dur="2s" repeatCount="indefinite"/>
  </circle>
  <circle cx="24" cy="19" r="1" fill="#4A6CF7">
    <animate attributeName="opacity" values="0.3;1;0.3" dur="2s" repeatCount="indefinite" begin="0.5s"/>
  </circle>
</svg>